<svg xmlns="http://www.w3.org/2000/svg" version="1.1" xmlns:xlink="http://www.w3.org/1999/xlink" xmlns:svgjs="http://svgjs.dev/svgjs" width="100%" height="100%" viewBox="0 0 1000 600"><rect width="1000" height="600" x="0" y="0" fill="#262223"/><g><rect width="333.3333333333333" height="333.3333333333333" y="117.64079963367448" fill="#ddc6b6" transform="matrix(1.3100172120984739,0,0,1.3100172120984739,0,-72.44768512933167)" x="95.41857147216797"/><path d="M311.64743774655784 333.8847654173657L311.64743774655784 277.36302663413426Q311.64743774655784 268.6673745136371 313.18729280956256 250.40046641328732L313.18729280956256 250.40046641328732L313.6099981209756 245.17703649368312L311.43608509085135 244.96568383797663Q306.4240078269537 263.44394459403304 302.7404329703542 274.3135097446544L302.7404329703542 274.3135097446544L273.81531237508943 359.307470575208L244.92038501635415 359.307470575208L214.4856025946142 274.3135097446544Q210.34912919007218 264.5309011090951 207.08825964488574 249.94756786534472L207.08825964488574 249.94756786534472L205.78995047411706 244.96568383797663L203.61603744399278 245.17703649368312Q205.57859781841051 264.5309011090951 205.57859781841051 277.36302663413426L205.57859781841051 277.36302663413426L205.57859781841051 334.5188233844853Q213.60999873525859 337.56834027396513 217.53511948409408 342.58041753786284L217.53511948409408 342.58041753786284L215.36120645396983 359.307470575208L172.72835647431026 359.307470575208L170.55444344418598 342.58041753786284Q174.47956419302147 337.56834027396513 182.51096510986952 334.5188233844853L182.51096510986952 334.5188233844853L182.51096510986952 234.0961186873552Q173.60396033366587 230.83524914216875 170.1317381327729 226.03452453397762L170.1317381327729 226.03452453397762L172.30565116289722 209.30747149663244L221.88294554434265 209.30747149663244L253.61603713685133 296.9282439052529Q259.6848776792816 311.2700312567672 261.4360853979928 323.2265529224508L261.4360853979928 323.2265529224508L262.1003366016419 326.91012777905024L265.1196602545923 326.91012777905024Q265.9952641139479 313.655296942598 272.96990175226335 296.9282439052529L272.96990175226335 296.9282439052529L303.16313828176726 209.30747149663244L351.8648288038571 209.30747149663244L354.0387418339814 226.03452453397762Q350.56651963308843 230.83524914216875 341.65951485688475 234.0961186873552L341.65951485688475 234.0961186873552L341.65951485688475 333.6432195251296Q350.1438143216754 336.90408907031605 353.6160365225683 341.25191513056467L353.6160365225683 341.25191513056467L351.44212349244407 359.307470575208L301.8648291109986 359.307470575208L299.6909160808743 341.49346102280066Q303.16313828176726 337.14563496255204 311.64743774655784 333.8847654173657L311.64743774655784 333.8847654173657Z " fill="#262223" transform="matrix(1.3100172120984739,0,0,1.3100172120984739,0,-72.44768512933167)"/><path d="M609.5968106804467 323.05168364488765L609.5968106804467 359.307470575208L514.1685702205932 359.307470575208L512.085236893392 342.0042298853983Q514.8051442927936 338.4741373031963 523.5435701929985 335.14659101669446L523.5435701929985 335.14659101669446L523.5435701929985 239.92089685254103Q515.0076905884937 236.79589686173927 512.085236893392 232.86071168813706L512.085236893392 232.86071168813706L514.1685702205932 215.55747099832737L562.9243571141205 215.55747099832737L565.0076904413218 232.86071168813706Q561.6801441548198 236.79589686173927 553.5493571417153 239.92089685254103L553.5493571417153 239.92089685254103L553.5493571417153 336.5933502716952L586.4775977855338 336.5933502716952Q589.1685699998352 325.7715910442892 594.1743570221381 321.17089661338656L594.1743570221381 321.17089661338656L609.5968106804467 323.05168364488765ZM615.8468106620503 271.17089676055855L617.9301439892513 255.1408042151496Q629.5910235845579 252.42089681574808 639.6025976291635 252.42089681574808Q649.5852364886691 252.42089681574808 656.4718105424729 253.05747088794843L656.4718105424729 253.05747088794843L656.4718105424729 336.18825768029507Q664.6025975555776 339.3132576710968 667.9301438420794 343.27737802979897L667.9301438420794 343.27737802979897L665.8468105148781 359.307470575208L617.9301439892513 359.307470575208L615.8468106620503 343.27737802979897Q618.7692643571518 339.3132576710968 627.3051439616565 336.18825768029507L627.3051439616565 336.18825768029507L627.3051439616565 278.26001711006256Q620.0134773164525 275.7715911914611 615.8468106620503 271.17089676055855L615.8468106620503 271.17089676055855ZM641.5701902159647 240.76001722044154Q624.1801439708549 240.76001722044154 624.1801439708549 225.0482117111327Q624.1801439708549 209.30747101672387 641.5701902159647 209.30747101672387Q658.9602364610744 209.30747101672387 658.9602364610744 225.0482117111327Q658.9602364610744 240.76001722044154 641.5701902159647 240.76001722044154Z " fill="#ddc6b6" transform="matrix(1.3100172120984739,0,0,1.3100172120984739,0,-72.44768512933167)"/></g></svg>